<svg xmlns="http://www.w3.org/2000/svg" width="21.811" height="21.811" viewBox="0 0 21.811 21.811">
  <path id="Exclusion_1" data-name="Exclusion 1" d="M-9265.094-1048.189a10.837,10.837,0,0,1-7.712-3.194A10.838,10.838,0,0,1-9276-1059.1a10.918,10.918,0,0,1,10.906-10.9,10.837,10.837,0,0,1,7.711,3.194,10.831,10.831,0,0,1,3.193,7.711,10.834,10.834,0,0,1-3.193,7.713A10.836,10.836,0,0,1-9265.094-1048.189Zm-5.454-11.717a.963.963,0,0,0-.962.962.962.962,0,0,0,.962.959h8.287l-3.664,3.667a.95.95,0,0,0-.283.679.95.95,0,0,0,.283.679.952.952,0,0,0,.679.281.952.952,0,0,0,.679-.281l5.284-5.282a.971.971,0,0,0,.3-.7.969.969,0,0,0-.3-.7l-5.285-5.284a.956.956,0,0,0-.681-.283.95.95,0,0,0-.679.283.951.951,0,0,0-.281.679.951.951,0,0,0,.281.679l3.664,3.664Z" transform="translate(9276 1070)" fill="#7395d9"/>
</svg>
