<svg xmlns="http://www.w3.org/2000/svg" width="17.61" height="32.573" viewBox="0 0 17.61 32.573">
  <g id="facebook-logo" transform="translate(0 0)" opacity="0.75">
    <path id="Tracé_7" data-name="Tracé 7" d="M39.025.007,34.8,0c-4.746,0-7.812,3.146-7.812,8.016v3.7H22.741a.664.664,0,0,0-.664.665v5.355a.664.664,0,0,0,.664.664h4.247V31.909a.664.664,0,0,0,.664.664h5.541a.664.664,0,0,0,.664-.664V18.4h4.966a.664.664,0,0,0,.664-.664l0-5.355a.665.665,0,0,0-.665-.665H33.858V8.579c0-1.506.359-2.27,2.321-2.27h2.845a.664.664,0,0,0,.664-.664V.671A.664.664,0,0,0,39.025.007Z" transform="translate(-22.077)" fill="#233559"/>
  </g>
</svg>
