<svg xmlns="http://www.w3.org/2000/svg" width="39.348" height="31.961" viewBox="0 0 39.348 31.961">
  <g id="twitter-logo-silhouette" transform="translate(0 0)" opacity="0.75">
    <g id="Groupe_4" data-name="Groupe 4">
      <path id="Tracé_8" data-name="Tracé 8" d="M39.348,61.223a16.12,16.12,0,0,1-4.635,1.271,8.105,8.105,0,0,0,3.548-4.463,16.273,16.273,0,0,1-5.129,1.96A8.078,8.078,0,0,0,19.378,67.35,22.916,22.916,0,0,1,2.742,58.916a8.081,8.081,0,0,0,2.5,10.774,8.072,8.072,0,0,1-3.656-1.013v.1a8.08,8.08,0,0,0,6.474,7.915,8.176,8.176,0,0,1-2.127.283,7.747,7.747,0,0,1-1.519-.15,8.076,8.076,0,0,0,7.539,5.606,16.2,16.2,0,0,1-10.024,3.45A17.155,17.155,0,0,1,0,85.771,22.816,22.816,0,0,0,12.373,89.4c14.848,0,22.965-12.3,22.965-22.965l-.027-1.045A16.119,16.119,0,0,0,39.348,61.223Z" transform="translate(-0.001 -57.441)" fill="#233559"/>
    </g>
  </g>
</svg>
